<svg width="156" height="80" viewBox="0 0 156 80" fill="none" xmlns="http://www.w3.org/2000/svg">
<g filter="url(#filter0_ddd_1782_65924)">
<path fill-rule="evenodd" clip-rule="evenodd" d="M35 26H123C127.971 26 132 30.0294 132 35V46.2593C132 51.2298 127.971 55.2593 123 55.2593H35C30.0294 55.2593 26 51.2298 26 46.2593V35C26 30.0294 30.0294 26 35 26ZM35 27C30.5817 27 27 30.5817 27 35V46.2593C27 50.6775 30.5817 54.2593 35 54.2593H123C127.418 54.2593 131 50.6775 131 46.2593V35C131 30.5817 127.418 27 123 27H35Z" fill="url(#paint0_linear_1782_65924)" fill-opacity="0.46"/>
</g>
<defs>
<filter id="filter0_ddd_1782_65924" x="0" y="0" width="156" height="79.2593" filterUnits="userSpaceOnUse" color-interpolation-filters="sRGB">
<feFlood flood-opacity="0" result="BackgroundImageFix"/>
<feColorMatrix in="SourceAlpha" type="matrix" values="0 0 0 0 0 0 0 0 0 0 0 0 0 0 0 0 0 0 127 0" result="hardAlpha"/>
<feOffset dx="4" dy="4"/>
<feGaussianBlur stdDeviation="10"/>
<feColorMatrix type="matrix" values="0 0 0 0 0.434896 0 0 0 0 0.548322 0 0 0 0 0.690104 0 0 0 0.41 0"/>
<feBlend mode="normal" in2="BackgroundImageFix" result="effect1_dropShadow_1782_65924"/>
<feColorMatrix in="SourceAlpha" type="matrix" values="0 0 0 0 0 0 0 0 0 0 0 0 0 0 0 0 0 0 127 0" result="hardAlpha"/>
<feOffset dx="-6" dy="-6"/>
<feGaussianBlur stdDeviation="10"/>
<feColorMatrix type="matrix" values="0 0 0 0 1 0 0 0 0 1 0 0 0 0 1 0 0 0 1 0"/>
<feBlend mode="normal" in2="effect1_dropShadow_1782_65924" result="effect2_dropShadow_1782_65924"/>
<feColorMatrix in="SourceAlpha" type="matrix" values="0 0 0 0 0 0 0 0 0 0 0 0 0 0 0 0 0 0 127 0" result="hardAlpha"/>
<feOffset dx="2" dy="2"/>
<feGaussianBlur stdDeviation="2"/>
<feColorMatrix type="matrix" values="0 0 0 0 0.446076 0 0 0 0 0.558333 0 0 0 0 0.67059 0 0 0 0.1 0"/>
<feBlend mode="normal" in2="effect2_dropShadow_1782_65924" result="effect3_dropShadow_1782_65924"/>
<feBlend mode="normal" in="SourceGraphic" in2="effect3_dropShadow_1782_65924" result="shape"/>
</filter>
<linearGradient id="paint0_linear_1782_65924" x1="120.185" y1="50.2034" x2="41.9112" y2="63.9153" gradientUnits="userSpaceOnUse">
<stop stop-color="#D6E3F3"/>
<stop offset="1" stop-color="white"/>
</linearGradient>
</defs>
</svg>
