<svg width="392" height="159" viewBox="0 0 392 159" fill="none" xmlns="http://www.w3.org/2000/svg">
<mask id="mask0_1782_65914" style="mask-type:luminance" maskUnits="userSpaceOnUse" x="0" y="0" width="392" height="159">
<path d="M6.10352e-05 0H392V149.303C392 150.31 391.63 151.131 391.167 151.151L205.339 159L0.721301 90.9094C0.306449 90.7714 6.10352e-05 89.9952 6.10352e-05 89.0823V0Z" fill="white"/>
</mask>
<g mask="url(#mask0_1782_65914)">
<path fill-rule="evenodd" clip-rule="evenodd" d="M418.577 4.06243C418.979 4.05172 419.314 4.36926 419.325 4.77166C419.335 5.17407 419.018 5.50896 418.615 5.51966L418.596 4.79104L418.577 4.06243ZM392.898 6.7677C377.855 7.73204 358.466 9.37582 341.055 12.0931C283.278 21.1099 255.431 31.2597 232.973 40.1496C231.323 40.8029 229.701 41.4496 228.099 42.0886C207.846 50.165 190.624 57.0326 156.945 60.7402C123.613 64.4095 105.218 58.9641 84.4872 52.1723C83.6004 51.8818 82.7093 51.5888 81.8125 51.2939C61.8086 44.7165 38.978 37.2097 -1.88202 35.4892C-34.2166 34.1277 -77.1061 40.4216 -117.904 46.4085C-120.962 46.8571 -124.007 47.3041 -127.036 47.746C-148.737 50.9121 -169.556 53.8159 -187.493 55.2108C-205.406 56.6039 -220.544 56.5019 -230.837 53.6002C-240.832 50.7827 -247.203 46.9429 -251.764 42.6887C-255.917 38.815 -258.541 34.6182 -261.012 30.6681C-261.246 30.2933 -261.479 29.9208 -261.712 29.5509C-264.407 25.2675 -267.078 21.3379 -271.555 18.2566C-276.029 15.1783 -282.376 12.9016 -292.486 12.0995C-308.62 10.8195 -324.899 18.1386 -340.858 26.1917C-342.655 27.0988 -344.449 28.0152 -346.237 28.9289C-352.357 32.0557 -358.414 35.1503 -364.345 37.7277C-372.012 41.0598 -379.532 43.5576 -386.804 44.1593C-406.099 45.7557 -428.965 43.2363 -446.976 40.3285C-455.989 38.8736 -463.798 37.3193 -469.355 36.1285C-472.134 35.5331 -474.35 35.0286 -475.872 34.6726C-476.633 34.4947 -477.22 34.3539 -477.618 34.2575C-477.817 34.2093 -477.968 34.1721 -478.07 34.147L-478.186 34.1185L-478.225 34.1088C-478.225 34.1087 -478.226 34.1086 -478.057 33.4349L-478.225 34.1088C-478.615 34.011 -478.853 33.6151 -478.756 33.2246C-478.658 32.8341 -478.262 32.5967 -477.872 32.6945L-478.036 33.3523C-477.872 32.6945 -477.872 32.6944 -477.872 32.6945L-477.834 32.7037L-477.722 32.7316C-477.621 32.7563 -477.472 32.793 -477.275 32.8407C-476.881 32.9363 -476.297 33.0762 -475.54 33.2532C-474.026 33.6072 -471.819 34.1098 -469.05 34.7031C-463.511 35.8899 -455.727 37.4392 -446.744 38.8894C-428.766 41.7919 -406.04 44.2881 -386.925 42.7066C-379.885 42.1241 -372.535 39.6977 -364.926 36.3908C-359.041 33.8333 -353.04 30.7671 -346.927 27.6443C-345.132 26.7274 -343.328 25.8055 -341.514 24.8903C-325.594 16.8563 -308.967 9.32964 -292.371 10.6464C-282.095 11.4617 -275.476 13.7891 -270.729 17.0558C-265.986 20.3196 -263.183 24.4762 -260.478 28.7745C-260.246 29.1429 -260.015 29.5123 -259.783 29.8824C-257.304 33.8454 -254.776 37.8857 -250.77 41.6227C-246.403 45.6957 -240.247 49.433 -230.442 52.1971C-220.419 55.0224 -205.511 55.1499 -187.606 53.7575C-169.725 52.3669 -148.952 49.4703 -127.246 46.3035C-124.204 45.8596 -121.144 45.4105 -118.07 44.9594C-77.3238 38.9794 -34.3004 32.6651 -1.82068 34.0328C39.2408 35.7617 62.2216 43.3179 82.2686 49.9094C83.1648 50.2041 84.0552 50.4968 84.9411 50.787C105.579 57.5482 123.747 62.9282 156.785 59.2912C190.267 55.6053 207.339 48.7974 227.561 40.7337C229.163 40.0948 230.785 39.448 232.437 38.7942C254.979 29.8706 282.931 19.6886 340.83 10.6528C358.305 7.92561 377.743 6.27843 392.805 5.31294C400.338 4.83008 406.779 4.51749 411.338 4.32561C413.617 4.22966 415.426 4.16389 416.666 4.12209C417.285 4.10119 417.763 4.08629 418.085 4.0766C418.247 4.07176 418.369 4.06822 418.452 4.06589L418.577 4.06243C418.577 4.06242 418.577 4.06243 418.596 4.79104C418.615 5.51966 418.616 5.51965 418.615 5.51966L418.493 5.52305C418.411 5.52536 418.289 5.52887 418.129 5.53369C417.808 5.54332 417.333 5.55817 416.715 5.57901C415.479 5.62068 413.674 5.6863 411.399 5.78206C406.849 5.97359 400.418 6.28564 392.898 6.7677Z" fill="#364FC7"/>
<path fill-rule="evenodd" clip-rule="evenodd" d="M242.642 35.3431C213.418 17.3565 181.54 1.34841 151.082 3.74414C116.875 6.4348 94.2131 17.6784 72.6526 28.3757L71.6776 28.8594C49.8121 39.7047 28.8949 49.8593 -1.85739 49.5536C-51.5271 49.0598 -88.4936 37.5782 -118.109 26.2323C-124.444 23.8051 -130.424 21.392 -136.116 19.0952C-143.755 16.0127 -150.875 13.1397 -157.639 10.7227C-169.418 6.5137 -179.971 3.74638 -190.006 3.74638C-199.986 3.74638 -208.791 7.25333 -217.671 12.5798C-223.585 16.1273 -229.481 20.4472 -235.767 25.0527C-238.953 27.3872 -242.24 29.7951 -245.679 32.2129C-266.087 46.5583 -291.495 60.9446 -331.704 60.9446C-349.106 60.9446 -385.75 56.2079 -417.984 51.484C-434.115 49.1201 -449.161 46.7563 -460.174 44.9835C-465.68 44.0971 -470.179 43.3584 -473.301 42.8413C-474.862 42.5828 -476.079 42.3796 -476.906 42.2411C-477.32 42.1718 -477.635 42.1187 -477.848 42.0829L-478.169 42.0288C-478.17 42.0286 -478.17 42.0285 -478.048 41.3099C-477.927 40.5912 -477.926 40.5913 -477.925 40.5914L-477.606 40.6454C-477.394 40.6811 -477.078 40.7342 -476.665 40.8034C-475.839 40.9418 -474.623 41.1448 -473.063 41.4032C-469.943 41.92 -465.446 42.6583 -459.942 43.5443C-448.933 45.3164 -433.895 47.679 -417.773 50.0416C-385.504 54.7707 -348.976 59.4869 -331.704 59.4869C-291.911 59.4869 -266.795 45.2741 -246.518 31.0203C-243.136 28.6431 -239.878 26.2561 -236.703 23.9305C-230.381 19.2987 -224.391 14.9107 -218.421 11.3297C-209.422 5.93146 -200.352 2.28863 -190.006 2.28863C-179.717 2.28863 -168.975 5.12406 -157.148 9.34997C-150.373 11.7709 -143.194 14.6674 -135.52 17.7635C-129.827 20.0604 -123.862 22.4672 -117.587 24.871C-88.0622 36.1824 -51.2761 47.6045 -1.8429 48.0959C28.5333 48.3979 49.1777 38.3921 71.0298 27.5535L72.0388 27.0529C93.6041 16.353 116.478 5.00374 150.968 2.29088C181.947 -0.145831 214.193 16.122 243.406 34.1016C250.719 38.6025 257.853 43.218 264.737 47.6831L265.862 48.4131C272.346 52.6197 278.601 56.6778 284.58 60.3722C297.246 68.1983 308.593 74.3403 318.148 76.7919C337.352 81.7193 362.391 80.2809 382.696 77.5854C392.835 76.2394 401.769 74.5836 408.167 73.2643C411.366 72.6047 413.931 72.0294 415.694 71.6192C416.576 71.4142 417.258 71.2504 417.719 71.138C417.949 71.0818 418.124 71.0385 418.241 71.0093L418.373 70.9762L418.414 70.9658L418.416 70.9653C418.416 70.9652 418.417 70.9652 418.596 71.6716C418.776 72.378 418.776 72.3781 418.775 72.3782L418.729 72.3898L418.594 72.4237C418.474 72.4535 418.297 72.4974 418.064 72.5542C417.599 72.6678 416.912 72.8328 416.024 73.0391C414.25 73.4517 411.674 74.0297 408.462 74.692C402.038 76.0165 393.069 77.6788 382.888 79.0304C362.552 81.7302 337.276 83.2049 317.786 78.2039C307.993 75.6913 296.478 69.437 283.814 61.6123C277.82 57.9083 271.55 53.8409 265.068 49.6358L263.943 48.9061C257.059 44.4405 249.939 39.8338 242.642 35.3431ZM-478.767 41.1882C-478.7 40.7913 -478.324 40.524 -477.927 40.5912L-478.048 41.3099L-478.17 42.0285C-478.567 41.9613 -478.834 41.5851 -478.767 41.1882ZM419.303 71.4919C419.402 71.882 419.165 72.279 418.775 72.3782L418.596 71.6716L418.416 70.9653C418.806 70.8661 419.203 71.1018 419.303 71.4919Z" fill="#212529"/>
</g>
</svg>
