<svg width="69" height="68" viewBox="0 0 69 68" fill="none" xmlns="http://www.w3.org/2000/svg">
<g filter="url(#filter0_ddd_1782_65921)">
<path fill-rule="evenodd" clip-rule="evenodd" d="M44.5 35C44.5 39.9706 40.4706 44 35.5 44C30.5294 44 26.5 39.9706 26.5 35C26.5 30.0294 30.5294 26 35.5 26C40.4706 26 44.5 30.0294 44.5 35ZM39.5 35C39.5 37.2091 37.7091 39 35.5 39C33.2909 39 31.5 37.2091 31.5 35C31.5 32.7909 33.2909 31 35.5 31C37.7091 31 39.5 32.7909 39.5 35Z" fill="url(#paint0_linear_1782_65921)" fill-opacity="0.46"/>
</g>
<defs>
<filter id="filter0_ddd_1782_65921" x="0.5" y="0" width="68" height="68" filterUnits="userSpaceOnUse" color-interpolation-filters="sRGB">
<feFlood flood-opacity="0" result="BackgroundImageFix"/>
<feColorMatrix in="SourceAlpha" type="matrix" values="0 0 0 0 0 0 0 0 0 0 0 0 0 0 0 0 0 0 127 0" result="hardAlpha"/>
<feOffset dx="4" dy="4"/>
<feGaussianBlur stdDeviation="10"/>
<feColorMatrix type="matrix" values="0 0 0 0 0.434896 0 0 0 0 0.548322 0 0 0 0 0.690104 0 0 0 0.41 0"/>
<feBlend mode="normal" in2="BackgroundImageFix" result="effect1_dropShadow_1782_65921"/>
<feColorMatrix in="SourceAlpha" type="matrix" values="0 0 0 0 0 0 0 0 0 0 0 0 0 0 0 0 0 0 127 0" result="hardAlpha"/>
<feOffset dx="-6" dy="-6"/>
<feGaussianBlur stdDeviation="10"/>
<feColorMatrix type="matrix" values="0 0 0 0 1 0 0 0 0 1 0 0 0 0 1 0 0 0 1 0"/>
<feBlend mode="normal" in2="effect1_dropShadow_1782_65921" result="effect2_dropShadow_1782_65921"/>
<feColorMatrix in="SourceAlpha" type="matrix" values="0 0 0 0 0 0 0 0 0 0 0 0 0 0 0 0 0 0 127 0" result="hardAlpha"/>
<feOffset dx="2" dy="2"/>
<feGaussianBlur stdDeviation="2"/>
<feColorMatrix type="matrix" values="0 0 0 0 0.446076 0 0 0 0 0.558333 0 0 0 0 0.67059 0 0 0 0.1 0"/>
<feBlend mode="normal" in2="effect2_dropShadow_1782_65921" result="effect3_dropShadow_1782_65921"/>
<feBlend mode="normal" in="SourceGraphic" in2="effect3_dropShadow_1782_65921" result="shape"/>
</filter>
<linearGradient id="paint0_linear_1782_65921" x1="39.1296" y1="38.5294" x2="32.9345" y2="38.7867" gradientUnits="userSpaceOnUse">
<stop stop-color="#D6E3F3"/>
<stop offset="1" stop-color="white"/>
</linearGradient>
</defs>
</svg>
